<?xml version="1.0" encoding="UTF-8"?>
<svg width="200px" height="36px" viewBox="0 0 200 36" version="1.1" xmlns="http://www.w3.org/2000/svg" xmlns:xlink="http://www.w3.org/1999/xlink">
    <title>dubbo</title>
    <defs>
        <linearGradient x1="0%" y1="50%" x2="100%" y2="50%" id="linearGradient-1">
            <stop stop-color="#9163EA" offset="0%"></stop>
            <stop stop-color="#00DDE5" offset="100%"></stop>
        </linearGradient>
    </defs>
    <g id="页面-1" stroke="none" stroke-width="1" fill="none" fill-rule="evenodd">
        <g id="详情" transform="translate(-30.000000, -20.000000)">
            <g id="dubbo" transform="translate(30.000000, 20.000000)">
                <rect id="矩形" x="0" y="0" width="200" height="36"></rect>
                <path d="M8.02783207,4.43165468 L0,4.43165468 L0,27.5683453 L8.02783207,27.5683453 C14.2815978,27.5683453 19.3513005,22.3890072 19.3513005,16 C19.3513005,9.61099281 14.2815978,4.43165468 8.02783207,4.43165468 M22.6827578,18.8489209 C22.6827578,23.9029065 26.6931247,28 31.6401283,28 C36.587132,28 40.5974989,23.9029065 40.5974989,18.8489209 L40.5974989,4.43165468 L22.6827578,4.43165468 L22.6827578,18.8489209 Z M60.9323862,15.1882043 C62.0476634,14.0479453 62.7373809,12.4731827 62.7373809,10.7337871 C62.7373809,7.25318273 59.9755531,4.43162878 56.5686257,4.43162878 L45.1606538,4.43162878 L45.1606538,13.5827079 L45.1606538,17.0359453 L45.1606538,27.5683194 L56.5686257,27.5683194 C60.3489741,27.5683194 63.4134088,24.4375281 63.4134088,20.5755137 C63.4134088,18.4079165 62.4478719,16.470823 60.9323862,15.1882043 M99.1413008,4 C92.0174872,4 88.2826017,9.37254676 88.2826017,16 C88.2826017,22.6274532 92.0174872,28 99.1413008,28 C106.265115,28 110,22.6274532 110,16 C110,9.37254676 106.265115,4 99.1413008,4 M82.9877985,15.1882043 C84.1030757,14.0479453 84.7927932,12.4731827 84.7927932,10.7337871 C84.7927932,7.25318273 82.0309655,4.43162878 78.624038,4.43162878 L67.2160661,4.43162878 L67.2160661,13.5827079 L67.2160661,17.0359453 L67.2160661,27.5683194 L78.624038,27.5683194 C82.4043864,27.5683194 85.4688212,24.4375281 85.4688212,20.5755137 C85.4688212,18.4079165 84.5032842,16.470823 82.9877985,15.1882043" id="形状结合" fill="url(#linearGradient-1)"></path>
                <path d="M10.647432,9.65469353 L10.647432,8.01440576 L8.28133411,8.01440576 L7.68980964,8.01440576 C6.38304758,8.01440576 5.32371177,9.09665036 5.32371177,10.4316719 L5.32371177,21.4820317 C5.32371177,22.8170532 6.38304758,23.8992978 7.68980964,23.8992978 L8.28133411,23.8992978 L10.647432,23.8992978 L10.647432,23.3813122 C10.647432,22.7138014 10.1177641,22.1726791 9.46438304,22.1726791 C8.81100202,22.1726791 8.28133411,21.6314705 8.28133411,20.964046 L8.28133411,10.8633266 C8.28133411,10.1958158 8.81100202,9.65469353 9.46438304,9.65469353 L10.647432,9.65469353 Z M96.7120619,9.65469353 L96.7120619,8.01440576 L99.0781598,8.01440576 L99.6696843,8.01440576 C100.976446,8.01440576 102.035782,9.09665036 102.035782,10.4316719 L102.035782,21.4820317 C102.035782,22.8170532 100.976446,23.8992978 99.6696843,23.8992978 L99.0781598,23.8992978 L96.7120619,23.8992978 L96.7120619,23.3813122 C96.7120619,22.7138014 97.2417299,22.1726791 97.8951109,22.1726791 C98.5484919,22.1726791 99.0781598,21.6314705 99.0781598,20.964046 L99.0781598,10.8633266 C99.0781598,10.1958158 98.5484919,9.65469353 97.8951109,9.65469353 L96.7120619,9.65469353 Z M30.3868655,12.9760863 L33.4289913,12.9760863 L33.4289913,9.86817266 L30.3868655,9.86817266 L30.3868655,12.9760863 Z M30.3868655,20.9521151 L33.4289913,20.9521151 L33.4289913,17.8442014 L30.3868655,17.8442014 L30.3868655,20.9521151 Z M57.8998262,7.97124029 L55.7027353,7.97124029 L49.1114626,23.9424633 L51.3085535,23.9424633 L57.8998262,7.97124029 Z M79.9552385,7.97124029 L77.7581476,7.97124029 L71.166875,23.9424633 L73.3639659,23.9424633 L79.9552385,7.97124029 Z" id="形状结合" fill="#FFFFFF"></path>
            </g>
        </g>
    </g>
</svg>