<?xml version="1.0" encoding="utf-8"?>
<!-- Generator: Adobe Illustrator 27.2.0, SVG Export Plug-In . SVG Version: 6.00 Build 0)  -->
<svg version="1.1" id="Layer_1" xmlns="http://www.w3.org/2000/svg" xmlns:xlink="http://www.w3.org/1999/xlink" x="0px" y="0px"
	 viewBox="0 0 512 512" style="enable-background:new 0 0 512 512;" xml:space="preserve">
<style type="text/css">
	.st0{fill:#010101;}
	.st1{fill:#603494;}
</style>
<g>
	<path class="st0" d="M23.12,359.9v35.13h-9.69V359.9H0v-8.92h36.51v8.92H23.12z M49.5,395.03v-44.05h33.25v8.64H59.13v8.92h20.76
		v8.64H59.13v9.25h23.95v8.64H49.49L49.5,395.03L49.5,395.03z M118.27,395.8c-12.99,0-22.63-10.02-22.63-22.69v-0.11
		c0-12.55,9.47-22.79,22.96-22.79c8.32,0,13.27,2.75,17.4,6.83l-6.17,7.1c-3.41-3.09-6.88-4.96-11.29-4.96
		c-7.43,0-12.77,6.17-12.77,13.71V373c0,7.54,5.23,13.87,12.77,13.87c5.01,0,8.15-2.04,11.56-5.18l6.17,6.22
		C131.81,392.78,126.75,395.8,118.27,395.8z M177.41,395.03v-17.68h-17.9v17.68h-9.69v-44.05h9.69v17.46h17.9v-17.46h9.69v44.05
		L177.41,395.03L177.41,395.03z M235.22,395.03l-21.36-28.02v28.02h-9.58v-44.05h8.92l20.65,27.15v-27.15h9.58v44.05L235.22,395.03
		L235.22,395.03z M280.92,395.8c-13.6,0-23.35-10.13-23.35-22.69v-0.11c0-12.55,9.91-22.79,23.51-22.79s23.35,10.13,23.35,22.69
		v0.11C304.38,385.56,294.52,395.8,280.92,395.8z M294.24,373.01c0-7.54-5.56-13.87-13.33-13.87c-7.82,0-13.21,6.17-13.21,13.71
		v0.11c0,7.54,5.56,13.87,13.33,13.87c7.76,0,13.21-6.17,13.21-13.71V373.01z M318.3,395.03v-44.05H328v35.24h21.97v8.81H318.3z
		 M382.67,395.8c-13.6,0-23.35-10.13-23.35-22.69v-0.11c0-12.55,9.91-22.79,23.51-22.79s23.35,10.13,23.35,22.69v0.11
		C406.13,385.56,396.27,395.8,382.67,395.8z M396,373.01c0-7.54-5.56-13.87-13.33-13.87c-7.82,0-13.21,6.17-13.21,13.71v0.11
		c0,7.54,5.56,13.87,13.33,13.87S396,380.66,396,373.12V373.01z M441.03,395.8c-13.71,0-23.18-9.63-23.18-22.69v-0.11
		c0-12.55,9.75-22.79,23.13-22.79c7.93,0,12.72,2.15,17.29,6.06l-6.11,7.38c-3.41-2.81-6.44-4.46-11.51-4.46
		c-7.05,0-12.67,6.22-12.67,13.71V373c0,8.04,5.56,13.99,13.33,13.99c3.53,0,6.66-0.88,9.14-2.64v-6.28h-9.75v-8.37h19.16v19.16
		C455.3,392.66,449.08,395.8,441.03,395.8z M495.1,377.47v17.56h-9.69v-17.4l-16.96-26.71h11.34l10.52,17.68l10.68-17.68H512
		L495.1,377.47z"/>
	<path class="st1" d="M169.31,230.51c-1.16,7.76-3.36,15.36-6.83,22.85c-5.06,11.45-12.11,22.47-21.58,31.72
		c-17.84,18.06-44.49,29.51-71.74,29.51H0.22v-39.65H69.1c16.3,0,31.94-6.17,42.51-17.18c7.65-7.76,12.99-17.23,15.75-27.26
		L169.31,230.51L169.31,230.51z M169.31,200.28c-1.16-7.76-3.36-15.36-6.83-22.85c-5.06-11.45-12.11-22.47-21.58-31.72
		c-17.84-18.06-44.49-29.51-71.8-29.51H0.22v39.65H69.1c16.3,0,31.94,6.17,42.51,17.18c7.65,7.76,12.99,17.23,15.75,27.26
		L169.31,200.28z M255.81,248.35l-52.64,66.24h-52.2l78.79-99.17l-78.74-99.22h52.2l52.64,66.18l52.58-66.18h52.2l-78.85,99.22
		l78.79,99.17h-52.2L255.81,248.35z M384.27,230.51c2.75,10.02,8.1,19.49,15.75,27.26c10.57,11.01,26.21,17.18,42.51,17.18h68.88
		v39.65h-68.87c-27.31,0-53.96-11.45-71.74-29.51c-9.47-9.25-16.52-20.26-21.58-31.72c-3.47-7.49-5.67-15.08-6.83-22.85
		L384.27,230.51L384.27,230.51z M384.27,200.28c2.75-10.02,8.1-19.49,15.75-27.26c10.57-11.01,26.21-17.18,42.51-17.18h68.88V116.2
		h-68.87c-27.31,0-53.96,11.45-71.74,29.51c-9.47,9.25-16.52,20.26-21.58,31.72c-3.47,7.49-5.67,15.08-6.83,22.85L384.27,200.28
		L384.27,200.28z"/>
</g>
</svg>
